<svg xmlns="http://www.w3.org/2000/svg" xmlns:xlink="http://www.w3.org/1999/xlink" viewBox="0 0 86.7 19.3"><defs><style>.cls-1{fill:url(#linear-gradient);}.cls-2{fill:url(#linear-gradient-7);}</style><linearGradient id="linear-gradient" y1="256.19" x2="86.67" y2="256.19" gradientTransform="matrix(1, 0, 0, -1, 0, 265.89)" gradientUnits="userSpaceOnUse"><stop offset="0" stop-color="#fff"/><stop offset="1" stop-color="#585858"/></linearGradient><linearGradient id="linear-gradient-7" y1="256.24" x2="86.67" y2="256.24" xlink:href="#linear-gradient"/></defs><title>Asset 1fz4</title><g id="Layer_2" data-name="Layer 2"><g id="Layer_1-2" data-name="Layer 1"><rect class="cls-1" x="24.7" y="4.7" width="5.7" height="10"/><rect class="cls-1" x="31.3" y="4.7" width="6.2" height="10"/><rect class="cls-1" x="18.2" y="4.7" width="5.7" height="10"/><rect class="cls-1" x="13.8" y="4.7" width="3.4" height="10"/><rect class="cls-1" x="6.7" y="4.7" width="2.7" height="10"/><rect class="cls-1" x="10.3" y="4.7" width="2.6" height="10"/><polygon class="cls-2" points="86.7 9.7 77 0 77 4.7 71.9 4.7 71.9 14.7 77 14.7 77 19.3 86.7 9.7"/><rect class="cls-1" x="59.8" y="4.7" width="11.2" height="10"/><rect class="cls-1" x="38.4" y="4.7" width="9" height="10"/><rect class="cls-1" x="48.3" y="4.7" width="10.6" height="10"/><rect class="cls-1" x="3.2" y="4.7" width="2.7" height="10"/><rect class="cls-1" y="4.7" width="2.3" height="10"/></g></g></svg>